<svg width="246" height="72" viewBox="0 0 246 72" fill="none" xmlns="http://www.w3.org/2000/svg">
<path d="M3.09482 39.2746V37.5354H10.0159V39.2746H3.09482ZM0.405287 42L5.47955 30.3812H7.66704L12.7772 42H10.5717L6.12504 31.5108H7.02155L2.59278 42H0.405287ZM32.7657 37.105V30.3812H34.7919V37.2664C34.7919 37.9956 34.6903 38.6351 34.487 39.185C34.2958 39.7348 34.0209 40.201 33.6623 40.5835C33.3036 40.966 32.8793 41.2828 32.3892 41.5338C31.8991 41.7729 31.3612 41.9462 30.7755 42.0538C30.2017 42.1614 29.5921 42.2152 28.9466 42.2152C28.2772 42.2152 27.6437 42.1614 27.046 42.0538C26.4483 41.9462 25.9044 41.7729 25.4143 41.5338C24.9242 41.2828 24.4999 40.966 24.1413 40.5835C23.7946 40.201 23.5197 39.7348 23.3165 39.185C23.1252 38.6351 23.0296 37.9956 23.0296 37.2664V30.3812H25.0737V37.105C25.0737 38.0135 25.241 38.7068 25.5757 39.185C25.9224 39.6511 26.3886 39.9739 26.9743 40.1532C27.56 40.3325 28.2174 40.4221 28.9466 40.4221C29.6519 40.4221 30.2914 40.3325 30.8651 40.1532C31.4389 39.9739 31.8991 39.6511 32.2458 39.185C32.5924 38.7068 32.7657 38.0135 32.7657 37.105ZM46.2766 42V30.3812H53.1439C54.0045 30.3812 54.7516 30.5067 55.3852 30.7577C56.0187 30.9968 56.5088 31.3733 56.8555 31.8873C57.2021 32.3894 57.3754 33.0349 57.3754 33.8238C57.3754 34.3498 57.2858 34.804 57.1065 35.1865C56.9272 35.5571 56.6761 35.8619 56.3534 36.1009C56.0307 36.34 55.6541 36.5253 55.2238 36.6568C54.8054 36.7883 54.3572 36.8719 53.879 36.9078L53.6997 36.7823C54.4648 36.7943 55.0983 36.866 55.6003 36.9975C56.1024 37.117 56.4849 37.3501 56.7479 37.6967C57.0108 38.0314 57.1423 38.5275 57.1423 39.185V42H55.1162V39.2925C55.1162 38.8383 55.0325 38.4857 54.8652 38.2346C54.7098 37.9717 54.4349 37.7924 54.0404 37.6967C53.6579 37.5892 53.108 37.5354 52.3908 37.5354H48.3207V42H46.2766ZM48.3207 35.8679H53.1439C53.8611 35.8679 54.405 35.6886 54.7755 35.3299C55.1461 34.9713 55.3314 34.4992 55.3314 33.9135C55.3314 33.3516 55.1461 32.9213 54.7755 32.6225C54.405 32.3117 53.8611 32.1563 53.1439 32.1563H48.3207V35.8679ZM70.1743 39.2746V37.5354H77.0953V39.2746H70.1743ZM67.4847 42L72.559 30.3812H74.7465L79.8566 42H77.6512L73.2045 31.5108H74.101L69.6722 42H67.4847ZM140.809 38.0912H143.23C143.278 38.4976 143.463 38.8682 143.786 39.2029C144.12 39.5256 144.557 39.7826 145.095 39.9739C145.633 40.1532 146.236 40.2428 146.906 40.2428C147.515 40.2428 148.017 40.1771 148.412 40.0456C148.806 39.9141 149.099 39.7288 149.29 39.4898C149.482 39.2507 149.577 38.9638 149.577 38.6291C149.577 38.3064 149.458 38.0613 149.219 37.894C148.98 37.7147 148.603 37.5712 148.089 37.4636C147.575 37.3441 146.9 37.2246 146.063 37.105C145.405 37.0094 144.784 36.8779 144.198 36.7106C143.612 36.5313 143.092 36.3042 142.638 36.0292C142.196 35.7543 141.843 35.4196 141.58 35.0251C141.329 34.6187 141.204 34.1406 141.204 33.5907C141.204 32.9094 141.395 32.3117 141.778 31.7977C142.172 31.2837 142.752 30.8832 143.517 30.5964C144.282 30.3095 145.22 30.166 146.332 30.166C148.005 30.166 149.29 30.5246 150.187 31.2419C151.095 31.9471 151.538 32.9213 151.514 34.1645H149.183C149.135 33.4592 148.836 32.9512 148.286 32.6404C147.748 32.3296 147.067 32.1742 146.242 32.1742C145.477 32.1742 144.844 32.2878 144.342 32.5149C143.852 32.742 143.606 33.1305 143.606 33.6804C143.606 33.8955 143.666 34.0868 143.786 34.2541C143.905 34.4095 144.109 34.547 144.395 34.6665C144.682 34.7861 145.071 34.8996 145.561 35.0072C146.051 35.1148 146.661 35.2224 147.39 35.3299C148.071 35.4256 148.687 35.5571 149.237 35.7244C149.798 35.8798 150.277 36.089 150.671 36.352C151.077 36.603 151.388 36.9257 151.603 37.3202C151.819 37.7147 151.926 38.1988 151.926 38.7726C151.926 39.4778 151.741 40.0934 151.37 40.6194C151.012 41.1334 150.45 41.5338 149.685 41.8207C148.932 42.1076 147.952 42.251 146.744 42.251C145.884 42.251 145.125 42.1614 144.467 41.9821C143.81 41.7908 143.242 41.5398 142.764 41.229C142.286 40.9182 141.897 40.5775 141.598 40.207C141.299 39.8364 141.084 39.4659 140.953 39.0953C140.833 38.7247 140.785 38.39 140.809 38.0912ZM164.38 39.4718V37.4816H172.054V39.4718H164.38ZM161.493 42L166.944 30.3991H169.525L175.03 42H172.43L167.661 31.5467H168.808L164.075 42H161.493ZM187.798 30.3991V40.0097H195.508V42H185.413V30.3991H187.798ZM212.779 42.2331C211.237 42.2331 209.916 41.994 208.816 41.5159C207.729 41.0258 206.892 40.3325 206.306 39.436C205.732 38.5395 205.445 37.4636 205.445 36.2085C205.445 34.9415 205.732 33.8597 206.306 32.9632C206.892 32.0666 207.729 31.3793 208.816 30.9012C209.916 30.4111 211.237 30.166 212.779 30.166C214.333 30.166 215.654 30.4111 216.741 30.9012C217.829 31.3793 218.66 32.0666 219.234 32.9632C219.819 33.8597 220.112 34.9415 220.112 36.2085C220.112 37.4636 219.819 38.5395 219.234 39.436C218.66 40.3325 217.829 41.0258 216.741 41.5159C215.654 41.994 214.333 42.2331 212.779 42.2331ZM212.779 40.1711C213.735 40.1711 214.572 40.0277 215.289 39.7408C216.018 39.4539 216.586 39.0176 216.992 38.4319C217.411 37.8462 217.62 37.105 217.62 36.2085C217.62 35.312 217.411 34.5709 216.992 33.9852C216.586 33.3995 216.018 32.9632 215.289 32.6763C214.572 32.3774 213.735 32.228 212.779 32.228C211.835 32.228 210.992 32.3774 210.251 32.6763C209.51 32.9632 208.93 33.3995 208.511 33.9852C208.093 34.5709 207.884 35.312 207.884 36.2085C207.884 37.105 208.093 37.8462 208.511 38.4319C208.93 39.0176 209.51 39.4539 210.251 39.7408C210.992 40.0277 211.835 40.1711 212.779 40.1711ZM242.899 39.6332L242.146 39.938V30.3991H244.53V42H242.146L232.768 32.8376L233.521 32.5328V42H231.136V30.3991H233.521L242.899 39.6332Z" fill="black"/>
<path fill-rule="evenodd" clip-rule="evenodd" d="M121.145 10.946C116.321 11.4413 117.682 15.3954 112.529 19.6391C109.314 22.2761 107.087 23.6342 104.614 25.5718C99.0079 29.9802 95.8331 35.0058 95.9573 42.4213C97.2758 30.4739 106.923 24.8709 110.88 21.9454C105.15 26.971 102.511 31.1322 100.821 34.5526C97.2347 41.8019 97.0701 47.1583 104.285 52.4721C107.253 54.6153 111.375 57.2096 112.076 63.1833C110.303 60.1347 106.304 56.7569 103.007 55.8089C109.809 61.0417 112.983 65.0368 111.952 72C109.684 62.4429 98.4717 59.5179 93.236 51.3185C80.9926 30.6795 104.16 26.971 110.838 17.0433C103.748 24.0475 93.7306 25.7774 88.949 36.1169C91.6692 25.5718 95.7089 22.3586 98.8416 20.0098C104.325 16.0132 110.096 14.6945 112.734 7.19803C108.365 14.655 104.201 14.9842 97.9351 19.1849C92.9472 22.5232 88.165 27.6724 86.9286 39.3301C81.6118 28.2067 87.6715 12.6349 95.6274 5.67321C103.872 -1.53664 114.095 -2.9784 122.546 7.89738C133.595 14.4063 137.552 29.1552 122.794 47.611C133.429 32.6976 131.038 19.5566 124.772 14.2412C132.151 24.9524 127.493 35.0463 123.165 43.9861C120.485 49.5055 121.269 50.7417 123.618 56.3452C119.372 52.6367 120.526 49.2174 115.992 45.5104C112.9 43.0381 109.066 41.5138 106.469 38.7123C105.067 37.1464 104.614 35.458 106.469 31.2963C107.458 29.1962 108.53 28.8255 109.725 29.6074C110.838 30.3909 114.549 33.6861 115.044 30.8846C115.167 30.1012 115.003 29.6484 115.867 29.2783C116.444 29.0311 117.022 29.1547 116.857 28.3302C116.774 27.9185 116.898 27.7539 117.393 27.6719C117.97 27.5483 117.929 27.3427 117.846 26.6829C117.599 25.076 118.876 25.2821 119.66 25.035C120.402 24.7879 120.402 24.2121 120.196 23.5517C120.072 23.1815 119.99 22.8108 119.866 22.4406C119.495 21.1219 119.454 20.2565 119.619 19.351L121.061 19.1849L119.784 18.6911C120.897 15.9717 121.721 14.737 121.144 10.9465L121.145 10.946ZM124.484 20.2565C125.226 23.5517 124.937 27.0136 124.112 30.1858C122.67 35.6642 120.32 37.5176 119.207 44.1922C119.537 37.1469 121.681 34.8407 123.123 29.8135C123.907 27.0956 124.401 23.9649 124.484 20.2565ZM102.511 3.11884C92.371 7.85585 86.847 19.2669 86.6823 30.2678C88.7848 19.5156 92.2063 10.2872 102.511 3.11884Z" fill="#00BCD4"/>
</svg>
